<?xml version="1.0" encoding="UTF-8" standalone="no"?>
<!DOCTYPE svg PUBLIC "-//W3C//DTD SVG 1.1//EN" "http://www.w3.org/Graphics/SVG/1.1/DTD/svg11.dtd">
<svg width="100%" height="100%" viewBox="0 0 1920 600" version="1.1" xmlns="http://www.w3.org/2000/svg" xmlns:xlink="http://www.w3.org/1999/xlink" xml:space="preserve" xmlns:serif="http://www.serif.com/" style="fill-rule:evenodd;clip-rule:evenodd;stroke-linejoin:round;stroke-miterlimit:1.41421;">
    <g transform="matrix(-1.12182,0,0,1.0306,2026.46,-523.409)">
        <path d="M-0.269,958.329C-0.269,958.329 408.404,1204.98 924.393,954.774C1141.1,849.695 1303.09,957.676 1372.28,981.354C1442.8,1010.07 1657.42,1070.95 1805.19,1024.39C1952.97,977.832 1953.98,904.958 1953.98,904.958L1963.09,1081.07L543.684,1088.54L14.769,1091.32L-0.269,958.329Z" style="fill:rgb(122,122,122);fill-opacity:0.501961;"/>
    </g>
    <g transform="matrix(1.0306,0,0,1.13348,17.7667,-367.519)">
        <path d="M1930.66,854.824L-19.666,854.824L-25.196,665.303C-25.196,665.303 374.396,983.114 890.385,732.914C1107.09,627.834 1269.08,735.815 1338.28,759.493C1408.8,788.213 1623.41,849.088 1771.19,802.529C1918.96,755.971 2001.95,656.781 2001.95,656.781L1930.66,854.824Z" style="fill:rgb(122,122,122);"/>
    </g>
    <g transform="matrix(1.0306,0,0,1.0306,17.7667,-299.954)">
        <path d="M-128.984,904.904L-828.023,908.282L-834.508,704.127C-834.508,704.127 -399.548,1021.94 162.111,771.738C397.996,666.659 574.325,774.64 649.643,798.318C702.109,817.947 827.848,852.598 953.547,857.701L-128.984,857.701L-128.984,904.904ZM1289.58,857.701L1013.53,857.701C1051.07,856.038 1087.53,851.004 1120.87,841.354C1281.72,794.796 1280.88,746.537 1280.88,746.537L1289.58,857.701Z" style="fill:rgb(122,122,122);fill-opacity:0.501961;"/>
    </g>
</svg>
